<svg viewBox="0 0 512 512" xmlns="http://www.w3.org/2000/svg">
  <defs></defs>
  <rect width="512" height="512" style="fill: rgb(216, 216, 216); paint-order: fill;"></rect>
  <rect x="172.421" y="186.471" width="165.18" height="138.665" style="fill: rgb(112, 112, 112);"></rect>
  <path d="M 157.014 194.111 C 157.014 180.46 168.112 169.362 181.762 169.362 L 330.256 169.362 C 343.905 169.362 355.004 180.46 355.004 194.111 L 355.004 317.855 C 355.004 331.505 343.905 342.604 330.256 342.604 L 181.762 342.604 C 168.112 342.604 157.014 331.505 157.014 317.855 L 157.014 194.111 Z M 282.227 235.294 C 280.487 232.742 277.625 231.234 274.57 231.234 C 271.516 231.234 268.615 232.742 266.914 235.294 L 233.271 284.637 L 223.023 271.837 C 221.245 269.633 218.576 268.357 215.792 268.357 C 213.007 268.357 210.301 269.633 208.561 271.837 L 183.812 302.774 C 181.569 305.558 181.144 309.386 182.691 312.596 C 184.238 315.805 187.485 317.855 191.043 317.855 L 228.166 317.855 L 240.541 317.855 L 320.975 317.855 C 324.416 317.855 327.587 315.96 329.172 312.905 C 330.758 309.85 330.565 306.177 328.631 303.354 L 282.227 235.294 Z M 200.324 231.234 C 210.572 231.234 218.886 222.92 218.886 212.672 C 218.886 202.425 210.572 194.111 200.324 194.111 C 190.077 194.111 181.762 202.425 181.762 212.672 C 181.762 222.92 190.077 231.234 200.324 231.234 Z" style="vector-effect: non-scaling-stroke; stroke-width: 5px; stroke: rgb(0, 0, 0); fill: rgb(159, 159, 159);"></path>
</svg>