<svg viewBox="0 0 512 512" xmlns="http://www.w3.org/2000/svg" xmlns:bx="https://boxy-svg.com">
    <defs></defs>
    <rect x="-7.062" y="-5.297" width="522.593" height="517.297" style="stroke: rgb(0, 0, 0); fill: rgb(181, 181, 181);"></rect>
    <path d="M 253.117 254.923 C 291.135 254.923 321.948 224.128 321.948 186.13 C 321.948 148.133 291.135 117.337 253.117 117.337 C 215.099 117.337 184.285 148.133 184.285 186.13 C 184.285 224.128 215.099 254.923 253.117 254.923 Z M 228.542 280.721 C 175.574 280.721 132.663 323.609 132.663 376.548 C 132.663 385.362 139.815 392.51 148.634 392.51 L 357.601 392.51 C 366.42 392.51 373.572 385.362 373.572 376.548 C 373.572 323.609 330.66 280.721 277.692 280.721 L 228.542 280.721 Z" style="fill: rgb(49, 49, 49);" bx:origin="0.49548 0.5"></path>
  </svg>